<svg width="978" height="784" viewBox="0 0 978 784" fill="none" xmlns="http://www.w3.org/2000/svg">
<path d="M555.659 682.819C563.778 681.322 570.716 681.322 579.071 682.74C601.143 686.602 621.639 698.186 650.175 722.853L657.506 729.236L651.356 731.127C647.967 732.23 645.839 733.177 646.548 733.413C648.361 733.807 649.228 737.116 648.125 739.48C646.864 742.239 642.212 744.288 633.305 746.101C588.452 755.242 556.684 749.016 534.691 726.793C531.617 723.641 528.307 719.622 527.439 717.888C525.705 714.657 525.153 708.353 526.572 708.353C526.965 708.351 525.862 705.987 524.128 703.072L520.896 697.871L522.788 696.452C526.02 693.93 537.844 688.098 543.835 685.971C547.067 684.789 552.348 683.371 555.659 682.819ZM398.477 682.818C414.4 680.06 428.51 682.503 444.827 690.699C452.552 694.561 456.415 697.004 456.415 698.187C456.414 698.66 455.232 700.788 453.813 703.072C449.793 709.377 449.793 709.456 450.739 708.825C451.685 708.274 452.08 710.165 451.686 713.475C451.37 716.706 448.138 721.513 442.699 726.95C420.47 749.016 388.938 755.163 344.164 746.101C335.256 744.288 330.605 742.239 329.344 739.48C328.24 737.116 329.108 733.807 330.921 733.334C331.629 733.176 329.58 732.23 326.349 731.206L320.516 729.394L324.771 725.453C352.204 700.708 376.72 686.443 398.477 682.818ZM501.609 727.821C506.729 725.221 506.544 733.142 501.068 739.466C496.688 744.525 485.284 744.993 479.859 744.093V734.761C479.861 725.276 491.738 732.834 501.609 727.821ZM492.972 716.251L498.722 726.211H483.408C481.172 726.285 476.698 729.317 476.697 740.854C471.49 736.813 463.228 720.698 471.839 688.563L472.225 629.256H492.972V716.251ZM501.609 725.276L495.748 716.251L495.594 629.256H501.609V725.276ZM505.696 688.563C506.956 696.25 508.473 714.201 504.463 724.504L503.691 629.256H505.696V688.563ZM302.069 649.326C321.303 646.804 340.222 652.242 358.273 665.402C360.637 667.135 362.607 668.79 362.609 669.027C362.609 669.264 361.191 671.313 359.535 673.599C356.776 677.224 356.54 678.012 357.249 679.667C358.825 683.056 356.776 687.548 350.864 693.379C328.162 715.996 295.842 720.882 250.752 708.667C236.484 704.806 231.833 701.654 232.937 696.531C233.252 695.113 233.962 694.167 234.75 694.167C236.878 694.167 234.829 692.906 229.626 691.015C226.868 689.99 224.661 689.045 224.66 688.729C224.739 688.099 240.978 676.357 249.491 670.919C267.779 659.098 286.856 651.296 302.069 649.326ZM655.298 649.562C662.077 648.302 673.428 648.695 682.336 650.508C700.466 654.291 719.859 664.063 743.822 681.637L753.755 688.887L747.527 691.251C744.138 692.591 742.009 693.852 742.719 694.01C743.428 694.168 744.295 695.35 744.531 696.61C745.635 701.654 740.905 704.806 726.717 708.667C681.627 720.882 649.307 715.996 626.604 693.379C620.614 687.468 618.643 683.134 620.299 679.509C621.166 677.618 620.929 677.065 618.013 673.204L614.859 668.949L620.141 665.009C630.309 657.522 643.08 651.927 655.298 649.562ZM465.139 578.354V586.374L428.042 583.058V617.146L465.139 613.83V621.852L433.509 626.031C439.002 635.463 442.354 646.34 443.881 658.94C444.59 664.535 444.512 666.111 443.724 666.663C443.172 666.978 442.62 667.924 442.541 668.791C441.437 675.49 438.126 677.617 428.352 677.617C404.467 677.617 379.715 662.486 362.767 637.505C351.967 621.665 342.902 603.145 342.902 596.998C342.902 594.634 343.218 593.374 343.69 593.688C344.479 594.161 343.139 590.221 339.04 580.055C338.173 577.848 337.542 575.957 337.778 575.957C338.015 575.957 344.479 577.376 352.125 579.188C383.718 586.474 406.001 596.26 420.793 610.134V572.493L465.139 578.354ZM556.676 610.544C571.601 596.266 594.285 586.216 627.393 578.716C633.697 577.298 639.136 576.037 639.532 576.036C640.478 575.957 640.242 576.982 638.035 582.341C633.621 593.215 632.99 594.949 633.856 594.397C634.566 594.003 634.646 595.028 634.409 598.181C633.936 603.697 625.107 621.822 616.436 634.825C598.384 662.171 574.026 677.617 549.116 677.617C539.657 677.617 536.032 675.569 535.007 669.658C534.849 668.634 534.455 667.137 534.061 666.349C532.326 662.251 536.346 642.548 540.997 632.54C542.021 630.316 543.142 628.166 544.361 626.085L512.329 621.852V613.83L549.427 617.146V583.058L512.329 586.374V578.354L556.676 572.493V610.544ZM0 363.731C0 363.495 0.787928 363.495 1.8125 363.652C2.75842 363.889 9.22248 364.913 16.1592 365.938C37.6004 369.326 56.2832 374.685 68.6592 380.911C91.9134 392.732 106.733 412.276 111.542 437.494C113.04 445.611 113.039 446.793 111.227 447.266C110.281 447.502 109.887 448.133 110.123 449.078C110.754 451.521 108.073 455.935 104.999 457.511C102.713 458.614 100.191 458.93 93.8057 458.93C89.2337 458.93 84.2674 458.693 82.7695 458.299C81.2718 457.984 82.6909 458.772 85.9229 459.954C112.33 470.041 127.859 486.197 136.372 512.124C139.131 520.635 139.131 520.556 137.318 521.107C136.451 521.423 135.821 522.447 135.742 524.023C135.348 528.752 132.747 532.22 128.727 533.323C125.889 534.19 126.992 534.505 135.899 535.688C164.041 539.391 184.615 553.891 197.464 578.873C198.961 581.788 200.223 584.467 200.224 584.783C200.224 585.098 199.119 585.965 197.779 586.596C195.888 587.62 195.414 588.251 195.809 589.67C196.597 592.743 194.784 597.077 191.789 599.362C190.213 600.623 186.192 602.278 182.172 603.303C175.235 605.115 176.496 605.115 186.822 603.066C195.178 601.411 217.172 600.703 224.188 601.885C243.106 605.116 259.344 614.966 272.114 630.964C274.636 634.116 276.686 636.953 276.687 637.269C276.687 637.584 275.267 638.845 273.533 640.105C270.932 642.075 270.617 642.627 271.247 643.967C272.666 646.489 271.326 650.587 268.252 653.739C264.468 657.443 252.802 662.959 243.895 665.166C234.672 667.451 218.748 667.609 208.895 665.481C184.931 660.359 146.621 639.712 146.62 631.91C146.62 629.546 148.118 627.024 149.143 627.654C151.902 629.388 148.197 625.921 143.861 622.769C141.024 620.72 138.737 618.749 138.737 618.513C138.738 617.961 144.571 615.754 163.174 609.292C169.874 607.007 174.13 605.352 172.634 605.667C171.136 606.061 165.776 606.219 160.81 606.219C136.531 605.982 114.301 595.186 86.79 570.52C79.8532 564.294 75.6748 558.777 75.6748 555.782C75.6749 552.867 76.4631 551.606 77.8818 552.079C79.0642 552.473 70.3155 542.623 68.1865 541.125C67.7924 540.81 67.6344 540.415 67.792 540.258C68.0285 540.1 74.4139 538.997 81.9814 537.814C89.5488 536.632 97.3525 535.372 99.3232 534.978L102.87 534.348L99.2441 534.269C95.4603 534.19 87.8929 531.825 80.168 528.437C73.7041 525.521 63.6927 518.822 56.2041 512.281C44.9317 502.352 26.3282 479.34 24.3574 472.721C23.3327 469.332 23.9639 465.234 25.3828 466.101C26.4075 466.731 26.4068 466.731 20.7314 457.905L16.5537 451.442H23.8848C33.6593 451.442 52.2623 452.861 61.4854 454.201C65.5844 454.832 70.2356 455.541 71.7334 455.777C73.2311 456.014 72.206 455.541 69.3682 454.753C61.3278 452.467 48.9522 444.35 39.1777 434.973C27.59 423.94 9.14387 396.593 6.7002 387.058C5.75443 383.275 5.99085 379.414 7.17285 380.201C8.11879 380.753 6.93637 377.837 3.23145 370.351C1.42009 366.886 0.00253122 363.894 0 363.731ZM973.527 364.046C975.498 363.731 977.154 363.731 977.312 364.046C977.469 364.361 976.128 367.513 974.315 371.06C970.532 378.625 969.349 381.54 970.295 380.989C970.689 380.753 971.163 381.147 971.32 381.936C973.212 389.108 951.613 423.073 936.399 436.785C926.861 445.454 914.958 452.861 907.627 454.91C902.661 456.25 902.661 456.25 916.771 454.201C926.704 452.704 948.066 451.285 955.239 451.601L960.915 451.837L956.974 457.905C951.614 466.337 951.14 467.283 952.401 467.047C954.057 466.653 954.057 470.75 952.401 474.454C950.509 478.71 940.972 491.477 932.773 500.697C922.289 512.518 908.179 523.551 897.222 528.437C889.575 531.825 882.007 534.19 878.224 534.269C875.229 534.347 875.781 534.505 881.299 535.45C901.161 538.602 909.28 540.021 909.598 540.179C909.755 540.336 907.548 542.938 904.71 546.09C900.217 550.976 899.666 551.922 900.69 552.867C904.552 556.729 898.798 564.136 879.801 579.818C864.114 592.743 846.062 601.806 829.666 605.194C824.227 606.298 809.881 606.613 805.229 605.667C802.549 605.194 808.303 607.243 835.814 616.7C837.863 617.409 839.518 618.197 839.52 618.434C839.52 618.67 836.839 620.799 833.607 623.084C830.376 625.448 827.695 627.497 827.695 627.733C827.696 627.891 828.01 627.89 828.404 627.575C829.429 627.024 830.848 629.703 830.849 631.988C830.849 639.633 792.223 660.438 768.574 665.481C758.721 667.609 742.797 667.451 733.574 665.166C724.667 662.959 713.001 657.443 709.217 653.739C706.143 650.587 704.881 646.489 706.221 643.889C706.93 642.628 706.537 641.997 703.856 639.869L700.703 637.348L703.936 633.25C716.075 617.804 729.87 608.189 746.896 603.303C754.701 601.096 773.698 600.545 785.838 602.278C790.804 602.988 794.982 603.382 795.14 603.225C795.376 603.067 794.036 602.673 792.302 602.357C788.045 601.648 783.157 598.023 782.054 594.713C781.029 591.64 781.187 588.566 782.369 588.566C782.763 588.566 781.896 587.778 780.319 586.832C777.403 585.177 777.403 585.178 778.507 582.577C779.137 581.08 781.266 577.139 783.236 573.829C795.928 552.315 814.137 540.1 839.52 536.081C844.092 535.372 848.664 534.584 849.768 534.348C851.659 533.954 851.659 533.953 849.216 533.401C845.038 532.456 842.988 530.171 841.806 524.97C841.49 523.236 841.569 522.369 842.199 522.29C842.672 522.29 842.279 521.975 841.333 521.581C839.047 520.635 839.047 519.925 841.569 511.966C845.905 498.096 852.921 486.827 863.011 477.37C870.184 470.672 879.17 465.076 889.891 460.742C894.068 459.009 896.433 457.905 895.094 458.299C893.833 458.614 888.866 458.93 884.058 458.93C874.204 458.93 870.263 457.59 868.292 453.729C866.873 451.049 866.794 448.527 868.134 448.054C868.607 447.817 868.292 447.581 867.346 447.581C866.4 447.502 865.454 447.266 865.296 446.872C864.587 445.847 867.031 433.002 869.08 426.776C878.461 397.933 900.296 380.28 938.449 370.666C947.199 368.381 955.239 366.883 973.527 364.046ZM271.562 507.553C272.036 506.135 279.682 512.834 291.27 524.812C309.479 543.646 319.884 559.25 325.087 575.642C328.24 585.571 329.029 591.719 328.319 602.357C328.004 607.559 327.688 613.784 327.609 616.148C327.294 622.295 324.299 633.014 321.461 638.451C317.047 646.647 311.608 647.434 302.148 641.13C287.644 631.515 276.765 615.912 271.562 597.629C268.173 585.493 267.463 578.243 267.621 553.892C267.7 534.821 267.937 529.698 269.435 520.005C270.459 513.7 271.405 508.104 271.562 507.553ZM705.591 506.607C706.931 506.613 710.162 532.142 710.714 547.192C711.029 555.467 710.793 562.009 710.005 569.022C709.295 574.538 708.98 579.739 709.217 580.606C709.453 581.631 709.295 582.262 708.665 582.262C708.113 582.262 707.955 582.892 708.271 583.759C708.901 585.965 706.537 596.604 703.62 604.406C699.758 614.809 694.87 622.768 687.46 630.491C675.557 643.021 666.176 647.671 660.106 643.889C655.14 640.736 650.489 626.63 649.938 613.391C649.78 609.056 649.386 603.855 649.149 601.885C648.361 596.447 650.174 583.759 652.696 575.878C658.924 556.964 670.434 540.572 693.215 518.191C699.757 511.808 705.354 506.607 705.591 506.607ZM509.763 626.818H467.706V573.42H509.763V626.818ZM471.026 623.498H506.442V576.74H471.026V623.498ZM504.507 621.64H472.963V578.598H504.507V621.64ZM465.139 588.612V611.594L429.738 614.833V585.372L465.139 588.612ZM547.729 614.833L512.329 611.594V588.612L547.729 585.372V614.833ZM800.421 604.406C799.554 604.406 799.317 604.643 799.947 604.879C800.499 605.115 801.209 605.037 801.445 604.801C801.761 604.564 801.288 604.327 800.421 604.406ZM797.268 603.618C796.4 603.618 796.164 603.854 796.795 604.091C797.346 604.327 798.055 604.249 798.292 604.013C798.607 603.776 798.135 603.539 797.268 603.618ZM226.395 453.098C227.262 454.595 230.809 461.057 234.119 467.598C249.018 496.677 255.088 520.005 253.038 540.258C252.565 544.749 252.329 548.689 252.565 549.005C253.038 549.793 250.989 560.354 249.412 565.318C245.944 575.957 236.09 591.482 230.572 594.871C225.133 598.26 220.009 596.368 214.019 588.803C205.82 578.322 198.252 558.147 199.75 550.424C199.986 549.084 199.987 548.375 199.593 548.927C199.278 549.398 198.962 544.275 198.805 537.499C198.332 513.148 203.455 493.683 218.354 463.343L224.739 450.34L226.395 453.098ZM757.774 459.796C774.328 492.658 780.793 517.246 778.743 539.942C778.349 544.356 777.876 550.266 777.719 553.104C776.93 564.136 770.86 579.267 763.45 588.803C753.833 600.939 746.187 598.89 735.467 581.158C727.82 568.549 725.298 559.092 724.746 540.415C724.273 525.284 724.903 518.743 727.978 506.844C731.604 492.974 739.96 473.509 749.734 456.25L753.045 450.34L757.774 459.796ZM487.602 571.959H471.756V153.166C446.626 153.326 402.896 154.588 382.437 158.821C354.076 164.689 366.005 155.657 356.275 157.039C343.719 158.821 313.646 166.965 333.014 140.59C335.801 136.794 340.119 152.171 353.303 152.171C367.57 152.171 362.095 136.133 367.57 136.132C370.309 136.133 374.613 142.782 377.352 147.476H471.756V32.6934L487.602 0V571.959ZM505.714 32.6934V147.476H602.729C605.467 142.782 609.77 136.133 612.508 136.132C617.984 136.133 612.508 152.171 626.776 152.171C639.959 152.171 644.277 136.795 647.065 140.59C666.432 166.965 636.359 158.821 623.804 157.039C614.074 155.657 626.004 164.688 597.643 158.821C576.456 154.437 530.313 153.237 505.714 153.151V571.959H489.868V0L505.714 32.6934ZM795.454 391.392C795.691 391.707 798.45 395.175 801.524 399.194C818.63 421.26 829.666 441.986 834.869 461.845C836.288 467.125 836.603 470.75 836.682 480.207C836.839 502.746 835.736 511.572 831.558 520.398C827.38 529.461 822.099 534.977 817.605 534.978C809.486 534.978 791.986 515.906 786.074 500.539C783.158 493.053 780.871 482.099 781.502 478.946C781.738 477.607 781.66 476.74 781.345 476.976C780.083 477.764 780.871 444.271 782.29 436.863C784.34 425.988 787.966 411.882 791.592 400.849C793.404 395.335 795.138 391.081 795.454 391.392ZM182.724 391.55C183.434 391.552 190.055 412.671 192.656 423.467C195.967 436.942 197.228 447.108 197.149 459.323C197.149 465.628 196.754 472.642 196.36 474.849C195.887 477.134 195.73 479.498 195.967 480.207C196.676 482.02 194.075 493.683 191.395 500.539C184.852 517.482 166.169 536.711 158.129 534.662C154.976 533.874 151.507 530.407 148.039 524.575C143.861 517.562 141.89 510.39 141.496 501.485C141.338 497.545 140.944 490.846 140.708 486.512C139.053 462.082 149.931 434.578 173.974 402.425C178.388 396.436 182.329 391.55 182.724 391.55ZM898.956 457.038C898.089 457.038 897.853 457.274 898.483 457.511C899.035 457.747 899.744 457.668 899.98 457.432C900.296 457.195 899.823 456.959 898.956 457.038ZM824.621 305.493C845.589 327.165 858.99 348.443 864.508 368.538C866.321 375.237 866.637 377.68 866.637 388.004C866.716 409.833 865.375 419.605 861.118 428.353C857.65 435.445 852.132 437.336 845.037 433.79C833.371 427.879 820.995 414.482 815.004 401.164C811.772 394.071 808.619 381.935 808.461 376.419C808.461 373.976 808.225 372.085 807.988 372.242C807.752 372.399 807.515 364.992 807.357 355.851C807.042 335.44 808.619 320.939 813.664 298.952L814.531 295.091L824.621 305.493ZM163.096 295.405C163.728 295.415 168.219 318.341 169.401 327.717C170.899 339.144 171.214 352.462 170.269 361.997C169.796 367.198 169.244 373.582 169.086 376.183C168.771 382.408 166.169 392.259 162.938 399.982C158.523 410.464 151.665 419.368 142.127 427.249C132.037 435.445 125.809 437.336 120.37 433.711C116.114 430.952 112.094 419.289 111.542 408.493C111.384 405.026 110.989 398.248 110.753 393.52C109.019 365.622 123.05 336.858 154.424 303.838C158.917 299.188 162.78 295.405 163.096 295.405ZM449.613 355.029C447.227 372.061 424.188 406.124 351.126 406.124C278.065 406.124 254.039 372.061 251.157 355.029L251.238 354.868H449.534L449.613 355.029ZM726.312 355.029C723.924 372.061 700.885 406.124 627.823 406.124C554.762 406.124 530.735 372.061 527.854 355.029L527.937 354.868H726.231L726.312 355.029ZM13.7158 252.062C14.3464 252.062 31.6886 262.623 38.4678 267.193C64.6387 284.688 79.6167 302.026 86.79 322.988C89.3124 330.238 89.3906 330.869 89.3906 343.872C89.4694 351.201 89.2333 360.185 88.918 363.731C87.7354 379.414 80.9561 383.118 66.373 376.183C45.4048 366.253 30.9007 348.6 22.5449 322.909C19.1553 312.664 15.687 295.248 15.5293 288.155C15.4505 285.318 15.214 283.27 14.9775 283.585C14.7411 283.979 14.583 281.851 14.583 279.014C14.583 276.098 14.2682 268.848 13.874 262.858C13.5588 256.949 13.4007 252.064 13.7158 252.062ZM964.226 252.062C964.541 252.062 964.698 254.111 964.462 256.554C964.225 259.076 963.674 266.09 963.122 272.158C962.57 278.226 962.176 284.846 962.098 286.895C962.098 289.022 961.861 290.125 961.467 289.652C961.073 289.101 960.994 289.968 961.23 291.544C962.098 296.745 956.737 319.284 951.613 331.814C943.257 352.225 930.251 366.647 912.436 375.474C901.242 380.99 894.699 380.832 891.31 375C889.654 372.163 887.369 361.367 888.63 362.155C889.181 362.47 889.26 362.154 888.866 361.209C887.526 357.584 887.447 339.931 888.708 332.444C893.517 304.862 913.619 282.166 955.082 257.185C959.811 254.348 963.91 252.063 964.226 252.062ZM448.579 352.943L351.951 173.265L252.202 352.984L351.867 158.054L448.579 352.943ZM725.276 352.943L628.648 173.265L528.899 352.984L628.564 158.054L725.276 352.943ZM221.743 105.481C222.453 105.481 222.452 105.56 221.112 109.422C218.905 115.648 216.068 126.759 216.856 126.365C219.221 124.87 216.067 136.69 210.471 150.401C203.061 168.527 195.888 180.427 186.271 190.593C180.516 196.661 170.741 204.542 169.401 204.227C168.455 203.912 168.062 207.694 167.51 221.722C167.273 228.657 166.563 238.193 165.933 242.921C165.302 247.649 164.987 252.456 165.303 253.48C165.618 254.899 165.539 255.293 164.829 254.899C164.199 254.427 164.041 254.82 164.356 256.16C164.987 258.525 161.44 274.679 158.681 282.402C155.685 290.835 148.749 303.917 144.492 309.197C139.763 315.029 133.062 320.466 125.337 324.801C104.605 336.543 96.0125 334.809 94.2783 318.653C93.963 315.265 94.042 314.241 94.5938 315.107C95.2243 315.974 95.2242 315.658 94.8301 313.925C94.5148 312.584 94.1992 306.044 94.1992 299.346C94.1992 289.968 94.5937 285.87 95.6973 281.614C101.688 259.233 116.508 240.083 144.098 219.199C148.906 215.495 152.927 212.343 152.927 212.186C152.926 212.029 152.138 212.265 151.192 212.659C148.512 213.841 135.663 214.786 131.643 214.077C128.017 213.447 123.839 210.058 123.682 207.536C123.524 206.039 123.365 205.566 122.577 203.675C121.631 201.468 123.445 185.076 125.337 177.983C131.486 155.76 148.04 137.556 175.156 123.213C184.852 118.169 191.631 115.411 208.5 109.737C215.436 107.374 221.347 105.482 221.743 105.481ZM755.962 105.876C755.962 105.561 756.435 105.481 757.065 105.718C757.617 105.954 760.77 106.9 763.923 107.846C791.355 115.963 816.107 128.887 830.375 142.521C844.091 155.602 851.107 168.37 854.103 185.786C855.364 192.8 855.679 203.36 854.733 204.306C854.103 204.936 854.024 205.33 853.787 207.536C853.629 210.058 849.452 213.447 845.826 214.077C841.097 214.865 827.696 213.604 825.567 212.186C820.995 209.27 824.7 212.344 834.632 219.83C852.683 233.464 868.844 251.037 875.623 264.435C881.535 276.019 883.9 286.422 883.663 300.134C883.584 305.965 883.506 312.507 883.506 314.556C883.427 316.762 883.19 317.944 882.796 317.393C882.481 316.841 882.402 317.787 882.639 319.6C883.19 324.013 880.668 329.529 877.278 331.263C872.312 333.863 864.744 331.893 852.132 324.801C844.407 320.466 837.706 315.029 832.977 309.197C828.326 303.366 821.389 289.968 818.314 280.748C815.004 270.819 811.693 254.033 812.166 249.698C812.481 247.492 812.403 246.703 811.93 247.728C811.536 248.831 811.299 247.964 811.378 244.97C811.457 238.744 809.644 204.545 809.171 204.147C808.934 203.911 808.776 204.148 808.776 204.699C808.776 206.275 796.795 196.661 790.804 190.199C787.651 186.811 783.315 181.372 781.107 178.062C772.752 165.453 761.006 138.265 760.061 129.202C759.745 125.893 759.903 125.104 760.691 125.577C761.401 125.971 761.558 125.735 761.243 124.711C758.642 115.807 755.963 106.351 755.962 105.876ZM54.9434 136.61C55.4951 134.877 54.7853 134.168 65.9785 148.432C82.7689 169.867 92.3865 187.441 97.1162 205.015C98.5351 210.295 98.8506 213.762 98.8506 223.691C98.9294 244.024 97.9048 251.353 93.2539 263.017C90.4162 270.109 86.4745 276.176 83.6367 277.674C79.4589 279.802 75.6747 279.251 70.8662 275.783C64.2446 270.976 55.9675 260.731 51.3955 251.668C47.1388 243.078 43.5915 229.129 43.5127 220.539C43.5126 219.435 43.2762 213.209 42.9609 206.748C42.3303 193.509 43.4342 182.318 46.9814 165.769C48.7156 157.809 50.1349 152.687 54.9434 136.61ZM922.289 135.507C923.078 135.43 930.25 161.986 932.3 172.546C934.034 181.609 934.35 185.392 934.429 199.262C934.508 222.667 933.719 230.627 929.777 242.369C926.861 250.959 923.077 257.815 917.165 265.302C910.307 273.734 903.607 278.856 899.192 278.856C894.62 278.856 891.467 276.65 888.156 271.212C883.19 262.937 878.067 245.364 879.249 240.557C879.564 239.453 879.485 238.665 879.17 238.901C878.855 239.137 878.382 234.96 878.303 229.681C877.672 208.561 884.057 189.095 898.798 166.557C903.606 159.228 906.208 155.761 917.56 141.103C919.924 138.029 922.053 135.507 922.289 135.507ZM116.508 36.29C122.026 46.5349 129.121 62.6109 132.353 72.3828C137.792 88.4593 139.841 102.96 138.658 116.515C138.343 120.613 138.264 124.868 138.422 125.972C138.816 127.547 138.659 127.705 138.028 126.76C137.319 125.814 137.24 126.129 137.634 127.941C138.264 131.724 134.402 145.28 130.146 153.948C123.997 166.478 116.271 174.044 109.649 174.044C106.891 174.044 105.787 173.492 102.87 170.812C96.1698 164.587 89.6276 152.214 86.7109 139.92C84.425 130.699 83.7151 106.428 85.4492 96.0254C88.3659 78.2151 95.5399 59.065 108.152 35.502L112.172 28.0938L116.508 36.29ZM870.735 37.3926C888.156 69.9397 895.882 98.7833 893.123 120.455C892.65 124.71 892.414 128.65 892.808 129.202C893.123 129.833 893.044 129.991 892.492 129.597C891.862 129.203 891.704 129.755 892.02 131.252C892.65 134.641 888.866 148.038 885.24 155.209C878.698 168.133 873.258 174.044 867.819 174.044C865.849 174.044 863.484 173.334 861.907 172.389C854.103 167.581 845.116 152.608 841.411 138.187C838.416 126.523 837.865 105.797 840.229 92.5576C843.146 76.4811 850.792 55.9914 861.355 36.2109L865.77 28.0938L870.735 37.3926ZM238.297 4.60938C239.085 4.60938 239.085 4.68842 237.193 14.0664C236.326 18.6372 235.459 25.1784 235.302 28.7246C235.065 35.3446 231.281 51.1838 227.419 62.1377C224.502 70.176 218.354 82.7069 214.255 88.9326C209.919 95.5524 200.302 105.561 194.312 109.816C181.305 119.037 162.308 124.474 154.897 121.086C153.794 120.613 152.139 118.958 151.271 117.539C149.695 115.017 149.616 114.072 150.01 100.123C150.325 88.1446 150.72 84.283 152.06 79.5547C160.731 49.9235 183.275 29.2758 230.178 7.99805C234.275 6.1862 237.9 4.61061 238.297 4.60938ZM739.408 4.60938C739.726 4.61072 743.588 6.18599 748 8.15527C805.939 33.8462 830.612 63.9511 828.168 106.191C827.38 120.061 825.015 122.662 813.664 121.795C799.554 120.77 784.576 112.968 772.516 100.28C762.583 89.8778 755.015 76.5598 749.34 59.6953C744.374 44.723 740.354 26.5196 742.324 27.6992C742.955 28.0932 740.591 11.7811 739.093 5.94922C738.935 5.23996 739.014 4.60938 739.408 4.60938Z" fill="#9E830E"/>
<path d="M516.474 716.639C516.904 718.536 517.557 720.542 518.496 722.361C518.509 722.388 518.524 722.414 518.538 722.441C518.568 722.499 518.597 722.558 518.628 722.616C519.631 724.525 521.254 726.617 522.495 728.136C523.998 729.975 525.789 731.987 527.532 733.775L528.229 734.472C531.469 737.681 534.879 740.573 538.458 743.158L536.167 746.346C535.398 747.414 534.316 748.179 533.104 748.567L533.055 748.606L531.145 752.327L528.978 760.05C528.898 760.336 528.798 760.615 528.677 760.886L526.249 766.307C526.112 766.614 525.948 766.909 525.762 767.189L523.733 770.23C523.494 770.589 523.215 770.922 522.905 771.222L513.502 780.313C513.305 780.503 513.096 780.68 512.875 780.842L510.255 782.761C509.266 783.485 508.079 783.892 506.854 783.926L506.421 783.938C505.313 783.969 504.218 783.693 503.256 783.143L500.913 781.804C499.784 781.158 498.894 780.164 498.375 778.971L498.135 778.415C497.706 777.429 497.547 776.347 497.677 775.28L498.221 770.814L497.739 766.372C497.686 765.878 497.695 765.378 497.764 764.885L497.944 763.594L497.983 763.346C498.088 762.773 498.277 762.217 498.541 761.697L499.302 760.2C499.67 759.474 500.183 758.83 500.807 758.307L502.782 756.651C502.474 756.447 502.185 756.213 501.918 755.955L499.115 753.239C498.886 753.016 498.674 752.775 498.482 752.519L498.435 752.456C500.692 751.703 503.034 750.642 505.174 749.125L511.609 759.035V741.925C512.722 740.1 513.632 738.168 514.271 736.21H516.042L514.843 734.134C515.103 732.973 515.263 731.811 515.306 730.667C515.348 729.528 515.29 727.65 514.647 725.622C515.524 722.759 516.104 719.7 516.474 716.639Z" fill="#910A35"/>
<path d="M529.561 634.215C527.82 639.144 526.355 644.687 525.338 649.655C524.601 653.256 524.038 656.84 523.79 659.95C523.667 661.497 523.606 663.1 523.682 664.623C523.746 665.927 523.941 668.095 524.852 670.246L524.964 670.513C524.972 670.539 524.981 670.569 524.99 670.601C525.023 670.719 525.055 670.849 525.082 670.969C525.095 671.028 525.105 671.078 525.112 671.117C525.116 671.136 525.118 671.152 525.12 671.163C525.122 671.171 525.123 671.178 525.123 671.178L525.138 671.273L525.154 671.366C525.751 674.81 527.092 678.314 529.714 681.186C529.078 681.492 528.448 681.8 527.831 682.106C523.908 684.053 519.352 686.495 516.787 688.453L515.891 689.125C515.826 688.655 515.762 688.205 515.696 687.777V636.818H519.763V632.92L529.561 634.215Z" fill="#910A35"/>
<path d="M461.847 687.245C461.709 687.776 461.575 688.305 461.446 688.83C460.603 688.152 459.726 687.549 458.925 687.035C456.528 685.494 453.244 683.727 449.315 681.762C448.8 681.503 448.286 681.25 447.773 681.001C450.087 678.375 451.329 675.301 452.019 672.37C454.199 669.423 454.331 666.119 454.36 664.946C454.405 663.176 454.21 661.04 453.928 658.698L453.802 657.682C453.797 657.643 453.791 657.604 453.786 657.565L454.141 657.01C454.602 656.288 455.209 655.677 455.915 655.213C456.236 654.392 456.736 653.639 457.395 653.017L457.816 652.618L458.054 652.408C458.552 651.985 459.116 651.647 459.723 651.405C460.367 650.672 461.18 650.109 462.09 649.759L461.847 687.245Z" fill="#910A35"/>
<path d="M539.727 17.8482C541.414 17.4634 543.185 17.8216 544.591 18.8306L548.659 21.7515L548.891 21.9273C549.119 22.1074 549.332 22.3041 549.531 22.5152L550.908 23.9761L551.139 24.2359C551.213 24.3238 551.285 24.4141 551.353 24.5064L552.451 25.979C552.727 26.3484 552.961 26.7491 553.145 27.1714L553.479 27.939C554.091 28.4398 554.613 29.0661 554.999 29.8003L555.252 30.2837L555.403 30.5943C555.736 31.3275 555.92 32.122 555.941 32.9292L556.183 42.024L556.779 45.5191L559.737 52.1226C559.846 52.3646 559.94 52.6145 560.016 52.8687L561.654 58.3814C562.345 58.3898 563.033 58.5173 563.686 58.7603L564.725 59.147L565.152 59.3247C566.496 59.9456 567.541 61.0313 568.128 62.3443C568.65 62.9199 569.06 63.5916 569.328 64.3247L570.146 66.5669L571.904 67.1626L572.268 67.2984C572.626 67.4455 572.97 67.6272 573.294 67.8404L574.85 68.8667C576.048 69.6557 576.925 70.8463 577.325 72.2232L578.256 75.4214C578.442 76.0617 578.519 76.7299 578.487 77.396L578.295 81.4165C578.272 81.8972 578.189 82.3688 578.057 82.8218C578.134 83.5056 578.096 84.1997 577.939 84.8726L577.733 85.7544C577.671 86.0233 577.588 86.287 577.49 86.5425C577.491 86.9352 577.456 87.3303 577.38 87.7202L577.26 88.3345C577.057 89.3705 576.585 90.3277 575.902 91.1177C575.77 91.5507 575.589 91.9698 575.362 92.3657C575.519 92.7527 575.64 93.1549 575.715 93.5679C576.273 93.5939 576.827 93.6966 577.359 93.8765L578.29 94.1929L578.615 94.313C579.367 94.616 580.052 95.0681 580.627 95.6431L581.446 96.4644C582.273 97.2914 582.827 98.328 583.071 99.44L583.359 99.5484L583.612 99.6509C584.869 100.189 585.91 101.14 586.558 102.35L586.624 102.476L589.638 102.779L589.915 102.813C590.191 102.853 590.465 102.912 590.731 102.991L593.663 103.849L601.022 104.816L601.404 104.877C602.287 105.051 603.123 105.422 603.848 105.961L604.607 106.531C606.203 107.722 607.11 109.623 607.029 111.613L606.975 112.961C607.496 112.929 608.015 112.967 608.52 113.067L608.721 112.925L609.016 112.727C609.715 112.288 610.497 111.996 611.316 111.871L611.873 111.787L612.253 111.742C613.046 111.672 613.833 111.762 614.576 111.993L614.72 111.951L614.916 111.897C615.176 111.733 615.45 111.588 615.735 111.464L616.268 111.235L616.635 111.09C617.501 110.782 618.429 110.675 619.346 110.78L622.097 111.093C622.878 111.182 623.636 111.424 624.325 111.804L625.751 112.588L626.09 112.789C626.23 112.879 626.366 112.977 626.498 113.078C627.421 112.916 628.374 112.97 629.277 113.241C630.625 113.065 632.004 113.35 633.183 114.063L633.641 114.341C634.133 114.639 634.57 115.002 634.948 115.411C635.726 115.567 636.466 115.875 637.123 116.316C638.07 116.373 639.011 116.654 639.863 117.165L640.166 117.347L640.456 117.533C640.612 117.639 640.76 117.752 640.904 117.871C642.696 117.534 644.567 118.024 645.971 119.239C646.259 119.488 646.518 119.762 646.75 120.054C647.756 120.172 648.741 120.544 649.604 121.175L650.062 121.512C651.401 120.886 652.93 120.768 654.354 121.196L654.718 121.305L655.138 121.448C656.586 122.001 657.742 123.085 658.405 124.447C659.279 124.461 660.119 124.663 660.879 125.021C661.924 124.072 663.281 123.508 664.72 123.456L665.732 123.419H666.18C667.218 123.459 668.232 123.768 669.121 124.317L669.94 124.825C671.206 125.607 672.14 126.829 672.56 128.256L672.682 128.666C672.779 128.997 672.844 129.334 672.884 129.672C674.009 130.18 674.966 131.026 675.605 132.114L676.21 133.141C676.65 133.889 676.919 134.715 677.009 135.563C677.878 136.288 678.538 137.252 678.891 138.353L679.82 141.25C679.982 141.754 680.076 142.276 680.101 142.801C680.705 143.402 681.175 144.122 681.479 144.914C682.197 144.84 682.925 144.894 683.626 145.076L684.181 145.221C685.364 145.53 686.391 146.179 687.165 147.048C687.531 146.946 687.904 146.879 688.281 146.847C688.951 145.954 689.874 145.24 690.981 144.823L691.719 144.543L692 144.447C692.66 144.234 693.353 144.138 694.048 144.16L696.969 144.257L697.235 144.271C697.502 144.291 697.767 144.331 698.029 144.387L700.18 144.845L700.428 144.905C700.675 144.968 700.918 145.047 701.155 145.142L703.557 146.1L703.982 146.146C704.917 146.245 705.818 146.561 706.609 147.069L707.774 147.816C709.359 147.853 710.866 148.512 711.97 149.65L713.087 150.801L713.937 151.397L714.656 151.564L714.881 151.528C716.178 151.315 717.48 151.538 718.607 152.116C719.042 151.895 719.509 151.723 719.999 151.612L722.015 151.153L722.32 151.09C723.04 150.965 723.779 150.973 724.498 151.112L725.184 151.243C726.263 151.452 727.255 151.949 728.061 152.668L729.747 153.667L730.066 153.87C730.176 153.945 730.283 154.024 730.388 154.106C731.001 154.055 731.621 154.093 732.226 154.231L732.951 154.396C733.722 154.01 734.576 153.787 735.458 153.758L743.247 153.504L745.907 153.109L747.945 152.459C748.743 152.205 749.588 152.118 750.421 152.207L757.218 152.932C757.674 154.036 758.143 155.148 758.623 156.261C762.826 166.009 768.123 176.571 772.771 183.586L772.779 183.598L772.788 183.61C775.33 187.421 780.01 193.278 783.482 197.01C786.916 200.711 791.798 205.058 795.766 208.252C797.137 209.357 798.527 210.425 799.805 211.333C800.021 214.518 800.266 218.623 800.496 222.908C801.006 232.416 801.413 242.136 801.379 244.842C801.346 246.177 801.323 248.253 801.705 250.009C801.752 250.223 801.872 250.771 802.135 251.484C802.181 253.117 802.359 254.793 802.541 256.236C802.874 258.868 803.39 261.922 804.012 265.065C804.976 269.943 806.259 275.356 807.646 280.109L803.917 296.715C799.087 317.767 797.294 332.457 797.32 351.446L794.822 354.297C794.322 354.868 793.72 355.341 793.045 355.688L790.087 357.208C789.212 357.658 788.24 357.887 787.257 357.875L786.419 357.867L785.446 358.64C785.423 358.658 785.398 358.674 785.375 358.692L785.475 359.706C785.575 360.735 785.408 361.774 784.992 362.72L784.159 364.615C784.152 364.63 784.144 364.645 784.137 364.66C784.144 365.112 784.101 365.565 784.007 366.008C784.033 366.062 784.063 366.115 784.088 366.168L784.39 366.822C784.786 367.679 784.975 368.618 784.943 369.563L784.872 371.689C784.85 372.33 784.725 372.965 784.504 373.567L783.57 376.099L782.767 382.003C782.73 382.28 782.672 382.556 782.597 382.825L782.273 383.967L782.383 385.305L783.177 388.203L783.257 388.534C783.328 388.866 783.371 389.204 783.386 389.543L783.55 393.493C783.075 394.804 782.582 396.236 782.092 397.726C778.566 408.453 775.062 421.895 772.881 432.854L772.463 435.011C771.694 439.054 771.185 447.831 770.924 455.908L770.754 456.522L770.748 456.542L769.757 460.112L769.633 461.243C768.691 459.285 767.716 457.303 766.705 455.296L753.545 428.984L741.033 451.322C730.978 469.076 722.212 489.361 718.303 504.314L718.299 504.328L718.296 504.342C717.771 506.376 717.309 508.275 716.909 510.093C716.84 509.704 716.772 509.327 716.703 508.965C716.435 507.554 716.121 506.096 715.754 504.87C715.591 504.324 715.282 503.356 714.771 502.353C714.533 501.888 713.994 500.893 713.049 499.876C712.263 499.029 709.758 496.623 705.629 496.607H705.591C703.65 496.607 702.215 497.184 701.854 497.329C701.282 497.558 700.849 497.794 700.626 497.92C700.169 498.179 699.823 498.422 699.677 498.526C699.347 498.761 699.068 498.988 698.915 499.113C698.572 499.394 698.192 499.727 697.831 500.048C697.083 500.714 696.089 501.626 694.942 502.697C692.634 504.853 689.545 507.8 686.231 511.033L686.207 511.057C664.846 532.043 652.342 548.681 645.061 567.538C644.549 567.228 644.01 566.959 643.446 566.741C641.708 566.067 640.152 566.004 639.206 566.041C639.199 566.041 639.192 566.041 639.186 566.042C639.099 566.045 639.017 566.048 638.941 566.053C638.911 566.055 638.881 566.057 638.852 566.059C638.799 566.063 638.749 566.066 638.702 566.07V566.072C638.229 566.109 637.902 566.163 637.895 566.165C637.671 566.199 637.463 566.236 637.312 566.264C637 566.323 636.642 566.396 636.285 566.471C635.557 566.625 634.593 566.839 633.49 567.086C631.326 567.572 628.27 568.268 625.198 568.959L625.19 568.96L625.184 568.962C601.311 574.371 581.937 581.237 566.676 590.49V561.084L519.763 567.283V563.419H515.714V163.239C541.268 163.587 578.073 164.984 595.617 168.614C602.062 169.947 606.981 170.644 610.819 170.793L521.818 344.868H521.806L517.443 353.437L517.994 356.696C521.961 380.153 551.725 416.124 627.823 416.124L629.598 416.117C704.368 415.561 732.921 379.918 736.215 356.417L736.645 353.351L734.232 348.498H734.234L645.449 169.583C646.635 169.533 647.809 169.43 648.944 169.253C651.433 168.866 654.663 168.007 657.534 165.849C660.765 163.421 662.888 159.824 663.317 155.534C663.701 151.699 662.666 148.046 661.301 144.929C659.896 141.722 657.798 138.31 655.126 134.67L655.125 134.669L654.948 134.436C653.073 132.018 649.486 129.406 644.554 130.093C640.957 130.595 638.583 132.732 637.862 133.384C636.853 134.298 635.932 135.354 635.343 136.033C634.622 136.863 634.089 137.497 633.434 138.215C632.563 139.169 631.772 139.926 631.025 140.515L628.698 135.826L625.923 141.252C625.774 140.674 625.64 140.043 625.453 139.152C625.275 138.302 624.989 136.919 624.568 135.599C624.176 134.369 623.345 132.099 621.479 130.063C619.294 127.681 616.253 126.224 612.841 126.135L612.51 126.131H612.504C608.134 126.133 605.019 128.546 603.785 129.581C602.191 130.917 600.819 132.505 599.743 133.879C598.848 135.023 597.981 136.254 597.169 137.475H515.714V56.8931L516.136 56.3384C516.194 55.6013 516.387 54.8726 516.715 54.1929L519.976 47.4156L520.039 46.4038L520.059 46.1587C520.183 44.9395 520.675 43.7831 521.474 42.8482L522.812 41.2788C523.22 40.802 523.698 40.3934 524.225 40.0669L526.927 35.7212L526.989 35.4077L527.059 35.1021C527.239 34.3962 527.545 33.7265 527.964 33.1284L528.978 31.6812L529.2 31.3823C529.431 31.0918 529.69 30.8222 529.972 30.5786L530.98 29.7036L531.201 29.1245C531.715 27.77 532.701 26.6444 533.975 25.9556L534.88 25.4663L534.825 24.4585C534.765 23.3396 535.018 22.2245 535.555 21.2407L535.771 20.8423L535.933 20.563C536.781 19.1905 538.146 18.2091 539.727 17.8482Z" fill="#910A35"/>
<path d="M461.756 563.419H460.765C460.479 562.802 460.298 562.136 460.233 561.449L459.957 558.467C459.911 557.971 459.929 557.471 460.005 556.982C459.964 556.838 459.926 556.691 459.896 556.544L459.787 556.014C459.706 555.616 459.666 555.21 459.666 554.804V552.639L459.126 551.447C458.953 551.064 458.82 550.662 458.73 550.251L458.006 546.945C457.943 546.657 457.901 546.365 457.881 546.072L457.82 545.202C457.783 544.662 457.821 544.121 457.927 543.593C457.657 543.247 457.42 542.872 457.23 542.472L456.771 541.506C456.568 541.077 456.416 540.626 456.318 540.163C455.765 540.23 455.203 540.222 454.651 540.134L452.441 539.784C451.412 539.621 450.442 539.191 449.626 538.542L449.038 538.074C447.635 539.199 445.804 539.632 444.062 539.279C443.674 539.421 443.272 539.527 442.862 539.588L441.559 539.782C440.51 539.937 439.437 539.812 438.45 539.421L436.878 538.797L435.109 538.458L431.707 538.687C431.189 538.721 430.667 538.687 430.157 538.588L425.738 537.732C425.12 537.612 424.533 537.395 423.993 537.1C422.948 537.305 421.854 537.234 420.827 536.872L417.809 535.81C415.131 534.867 413.471 532.183 413.824 529.366L414.809 521.504L414.452 519.539C414.244 518.386 414.378 517.196 414.834 516.117L415.558 514.403L415.677 514.139C415.802 513.879 415.945 513.627 416.105 513.387L416.444 512.882L416.903 508.25L416.612 507.219C415.392 506.34 414.519 505.02 414.218 503.488L413.563 500.161L413.019 498.871L411.773 496.793C411.411 496.188 411.156 495.521 411.023 494.826L410.601 492.617C410.187 490.451 410.99 488.265 412.631 486.876C411.123 485.092 410.765 482.567 411.78 480.411L417.907 467.408C417.749 466.479 417.81 465.515 418.098 464.596L421.817 452.696L419.486 448.283C419.012 447.385 418.773 446.383 418.789 445.368L418.79 445.282C418.671 445.067 418.563 444.846 418.471 444.618C417.663 444.519 416.882 444.259 416.178 443.85L414.766 443.029C413.997 442.582 413.338 441.969 412.834 441.24L411.927 440.606L410.282 439.946C409.467 439.618 408.733 439.115 408.132 438.474L407.768 438.086C407.089 437.362 406.599 436.48 406.342 435.521L405.979 434.168C405.884 433.812 405.822 433.446 405.793 433.079L405.574 430.31L405.09 428.9C404.906 428.366 404.797 427.809 404.767 427.245L404.539 422.826C404.517 422.398 404.54 421.971 404.607 421.551L378.586 420.505C375.571 420.385 373.116 418.056 372.821 415.064C432.826 408.952 456.534 377.705 459.517 356.417L459.942 353.377L455.765 344.868H455.735L369.351 170.789C373.176 170.633 378.069 169.937 384.463 168.614C401.393 165.111 436.308 163.685 461.756 163.279V563.419Z" fill="#910A35"/>
<path d="M432.882 344.868H294.277C294.268 344.858 294.257 344.85 294.248 344.84L292.821 343.403C292.205 342.781 291.734 342.036 291.438 341.222L289.802 340.382C288.891 339.915 288.119 339.225 287.553 338.384L287.314 338.361C286.02 338.227 284.802 337.678 283.845 336.796L283.386 336.373C282.486 335.544 281.858 334.46 281.588 333.266L281.5 332.878L281.389 332.826C280.071 332.188 279.031 331.09 278.462 329.741L278.135 328.968C277.945 328.52 277.814 328.053 277.738 327.58L351.812 194.12L432.882 344.868Z" fill="#910A35"/>
<path d="M709.579 344.868H544.841L628.509 194.12L709.579 344.868Z" fill="#910A35"/>
<path d="M376.741 1.14016C377.752 0.919262 378.807 0.961538 379.801 1.26614L381.455 1.77297L381.776 1.88137C383.365 2.46827 384.641 3.70069 385.28 5.28079L385.307 5.34524C386.212 6.05573 386.896 7.00969 387.277 8.09622L387.856 9.74954C388.172 10.6513 388.271 11.6164 388.141 12.563L387.586 16.6187L387.749 16.6753L388.048 16.7866C388.344 16.9065 388.63 17.0501 388.903 17.2154L391.101 18.5435C392.478 19.3757 393.466 20.7241 393.846 22.2876C394.14 23.501 394.045 24.7672 393.596 25.9136L394.712 27.5435C395.25 28.3301 395.594 29.2348 395.716 30.1802L395.958 32.0513C396.115 33.2685 395.897 34.506 395.333 35.5962L393.51 39.1226C393.092 39.9298 392.497 40.6329 391.769 41.1782L391.403 41.4517L391.441 42.7857C391.473 43.9504 391.168 45.1014 390.561 46.0962L389.154 48.398L388.469 50.5113L388.194 52.772L388.148 54.1402L388.594 54.9878L388.727 55.2603C388.854 55.5347 388.96 55.8193 389.044 56.1099L389.498 57.6773C391.172 58.5017 392.401 60.0707 392.762 61.9566L392.918 62.7769C393.023 63.3268 393.052 63.8901 393.002 64.4478L392.784 66.8726C393.366 67.393 393.851 68.0271 394.2 68.7505C394.274 68.904 394.339 69.0617 394.399 69.2193C394.981 69.5964 395.5 70.07 395.924 70.6275L397.467 72.6568L399.216 74.4595L402.64 75.3013L402.872 75.3628C403.342 75.4983 403.784 75.6899 404.197 75.9263L404.447 76.0327C404.495 76.053 404.543 76.0767 404.59 76.0982C404.675 75.9173 404.77 75.739 404.874 75.5659C405.748 74.1121 407.194 73.093 408.856 72.7583L408.992 72.73L409.346 72.3238L409.505 72.147C411.176 70.3621 413.769 69.7571 416.067 70.6363L416.49 70.7974C416.768 70.5969 417.066 70.4182 417.379 70.2661L421.398 68.3101L421.622 68.2075C422.641 67.7622 423.763 67.6074 424.864 67.7593C425.28 66.8628 425.913 66.0774 426.71 65.4771L428.472 64.148L428.793 63.9234C429.557 63.4217 430.427 63.0986 431.338 62.982L432.377 62.8491L432.657 62.8199C432.916 62.7991 433.177 62.7957 433.433 62.8081L433.625 62.7066L433.881 62.5767C435.174 61.9614 436.649 61.8251 438.038 62.1978L438.532 62.3306C439.745 62.6561 440.809 63.3477 441.595 64.2857C441.726 64.2452 441.859 64.2086 441.994 64.1773L444.012 63.7075L444.438 63.6236C445.19 63.5043 445.958 63.5319 446.7 63.6978C447.445 63.4855 448.227 63.4172 449 63.5005C449.022 63.0307 449.097 62.5566 449.233 62.0884L449.825 60.0591C450.08 59.185 450.532 58.3794 451.142 57.7036L451.721 57.063C452.153 55.4889 453.204 54.1534 454.639 53.3667L455.013 53.1616L455.27 53.0279C456.574 52.3925 458.069 52.247 459.476 52.6236L460.333 52.8521L460.682 52.9575C461.055 53.0821 461.415 53.2431 461.756 53.437V137.475H382.91C382.097 136.254 381.23 135.023 380.335 133.879C379.259 132.505 377.887 130.916 376.292 129.58C375.096 128.577 372.135 126.282 367.979 126.138L367.574 126.131H367.568C364.022 126.132 360.854 127.604 358.6 130.063C356.733 132.099 355.903 134.369 355.511 135.599C355.09 136.919 354.803 138.302 354.625 139.152C354.513 139.687 354.419 140.129 354.331 140.521L352.001 135.826L349.449 140.815C348.584 140.192 347.672 139.339 346.646 138.214C345.99 137.496 345.456 136.863 344.735 136.033C344.146 135.354 343.226 134.298 342.217 133.384C341.496 132.732 339.122 130.593 335.524 130.092C330.432 129.383 326.773 132.192 324.953 134.67C322.281 138.31 320.183 141.722 318.778 144.929C317.413 148.046 316.378 151.698 316.762 155.533C317.191 159.823 319.314 163.421 322.545 165.849C325.417 168.007 328.646 168.866 331.135 169.253C332.305 169.436 333.515 169.541 334.738 169.588L270.249 295.718L268.306 295.749L262.38 297.631C261.778 297.822 261.149 297.916 260.517 297.912L259.908 297.908C259.536 298.178 259.134 298.408 258.705 298.588L257.514 299.086L255.893 300.321L252.708 303.429C252.286 303.84 251.804 304.188 251.282 304.46L249.292 305.499C248.468 305.929 247.562 306.155 246.648 306.178L244.862 307.39C244.611 307.56 244.347 307.712 244.073 307.842L242.838 308.429L242.556 308.788L242.354 309.329C241.797 310.825 240.668 312.04 239.217 312.706L238.479 313.043C236.733 313.845 234.716 313.765 233.047 312.844L230.752 316.118C230.007 317.18 228.94 317.975 227.709 318.383L224.222 319.538L224.074 319.659C223.402 320.211 222.618 320.611 221.777 320.832L219.435 321.449C218.992 321.565 218.535 321.631 218.077 321.645L216.834 321.681C215.164 321.73 213.548 321.083 212.372 319.897C212.021 319.542 211.718 319.148 211.468 318.727L209.915 318.39L204.461 317.901L198.806 318.323C197.729 318.403 196.662 318.191 195.709 317.726L193.279 318.975C192.829 319.206 192.35 319.381 191.856 319.493L188.562 320.242C187.371 320.513 186.123 320.416 184.988 319.963L182.961 319.153C182.918 319.136 182.876 319.117 182.834 319.099C181.474 319.4 180.026 319.23 178.746 318.566C178.503 318.44 178.271 318.297 178.051 318.142C177.391 314.242 176.608 309.973 175.856 306.13C175.741 305.542 175.624 304.96 175.51 304.387L175.527 296.892C175.127 297.309 174.668 297.667 174.162 297.955C174.08 297.588 174.004 297.234 173.927 296.897C173.651 295.7 173.372 294.558 173.111 293.65C172.994 293.241 172.804 292.609 172.55 291.97C172.445 291.708 172.163 291.01 171.681 290.227C171.455 289.861 170.923 289.038 170.034 288.189C169.684 287.855 168.931 287.181 167.802 286.579C167.905 286.299 168.006 286.023 168.104 285.75L168.103 285.749C169.686 281.312 171.367 274.884 172.561 269.397C173.166 266.616 173.687 263.89 174.019 261.615C174.117 260.941 174.204 260.256 174.273 259.585C174.622 258.921 174.859 258.301 175.016 257.787C175.684 255.596 175.449 253.685 175.399 253.242C175.343 252.741 175.26 252.267 175.181 251.867C175.182 251.504 175.198 250.949 175.244 250.203C175.345 248.554 175.556 246.409 175.845 244.243C176.532 239.092 177.257 229.241 177.502 222.114C177.706 216.939 177.882 213.353 178.057 210.915C179.434 209.96 180.954 208.802 182.463 207.584C186.05 204.687 190.276 200.901 193.526 197.473L193.535 197.464C204.264 186.123 212.021 173.036 219.728 154.185L219.729 154.18C222.632 147.069 224.978 140.266 226.312 135.251C226.931 132.928 227.53 130.277 227.633 128.016C227.661 127.393 227.667 126.529 227.541 125.561C227.496 125.216 227.413 124.7 227.248 124.08C227.34 123.693 227.443 123.274 227.556 122.827C228.391 119.521 229.567 115.5 230.537 112.763L230.549 112.731L230.56 112.7C230.885 111.761 231.175 110.92 231.394 110.244C231.561 109.723 231.9 108.67 232.075 107.554C232.162 107.003 232.329 105.743 232.094 104.2C231.824 102.432 230.955 99.9508 228.65 97.9702C226.564 96.1772 224.366 95.7371 223.444 95.6001C222.773 95.5004 222.166 95.4854 221.894 95.4829C222.141 95.1256 222.38 94.775 222.606 94.4302L222.607 94.4312C227.198 87.4589 233.677 74.2076 236.819 65.5484L236.835 65.5054L236.85 65.4624C237.372 63.9819 237.889 62.4267 238.396 60.8257L239.096 60.4458C240.605 59.6233 242.394 59.4842 244.013 60.0611L245.569 60.6157C247.11 61.1654 248.365 62.318 249.041 63.8081L250.13 66.2124L251.592 68.0064C251.802 68.2649 251.99 68.5428 252.155 68.8325L253.051 70.4009C253.212 70.6846 253.35 70.9825 253.464 71.2886L254.261 73.438L254.361 73.7359C254.455 74.0343 254.525 74.3404 254.571 74.6499L254.85 76.521C254.899 76.8534 254.915 77.1907 254.908 77.5259C255.404 77.7535 255.875 78.0474 256.301 78.4087L265.192 85.9644L265.385 85.981L265.715 85.8374L266.957 84.5962L267.269 84.3062C267.59 84.0268 267.942 83.7805 268.315 83.5747L270.863 82.1743C271.664 81.7339 272.557 81.481 273.47 81.4351L276.112 81.3032L276.513 81.2964C277.444 81.3113 278.361 81.5414 279.191 81.9712L279.668 82.2183C280.098 81.3632 280.727 80.6137 281.515 80.0425L282.132 79.5962L282.377 79.4273C282.958 79.0484 283.6 78.772 284.275 78.6109L285.183 78.3931L287.914 76.7437C288.962 76.1108 290.157 75.8224 291.338 75.8814L291.393 75.7954C291.919 74.9669 292.637 74.2778 293.488 73.7896L296.037 72.3286L296.301 72.1861C297.288 71.6833 298.389 71.4658 299.483 71.5464L299.465 70.6187C299.431 69.1548 299.929 67.7271 300.869 66.604L301.8 65.4937L302.044 65.2183C302.22 65.032 302.409 64.8586 302.606 64.6968C301.451 63.9637 300.558 62.8483 300.111 61.5093L299.869 60.7857C299.387 59.3405 299.471 57.7653 300.101 56.3784L300.445 55.6167L300.369 55.4331L298.189 51.4556C298.035 51.1721 297.902 50.8755 297.794 50.5708L296.913 48.0835C296.769 47.6761 296.667 47.2536 296.613 46.8247L296.047 42.3325C295.977 41.781 295.987 41.2256 296.068 40.6822L295.403 40.356C294.817 40.0683 294.28 39.6862 293.816 39.2271L290.426 35.8716C290.052 35.5019 289.728 35.0839 289.463 34.6304L288.182 32.4458C288.161 32.4104 288.143 32.3724 288.123 32.3365C287.515 31.8954 286.991 31.3452 286.583 30.7095L286.28 30.2388C285.618 29.2052 285.286 27.993 285.33 26.7661L285.366 25.7505C285.416 24.3597 285.945 23.0285 286.864 21.9829L287.216 21.5845L287.457 21.3238C288.701 20.0658 290.442 19.4122 292.218 19.5503L293.304 19.6343C294.22 19.7056 295.108 19.9862 295.899 20.4527L297.253 21.2495L297.599 21.4683C297.909 21.681 298.196 21.9246 298.461 22.19L299.271 22.0708L299.601 22.0318C299.932 22.0016 300.266 21.9995 300.598 22.024L302.226 22.1441L302.565 22.1782C302.903 22.2225 303.237 22.2965 303.562 22.397L305.868 23.1089C307.259 23.5386 308.441 24.4555 309.206 25.6802C309.351 25.677 309.497 25.6778 309.642 25.6851L313.48 25.8784L313.815 25.9038L314.385 25.9644L314.625 25.9947C314.731 26.0102 314.836 26.0293 314.939 26.0503C315.892 25.622 316.964 25.4375 318.057 25.5542L319.638 25.7232L319.984 25.771C320.791 25.905 321.565 26.2013 322.256 26.6441L324.006 27.7671C324.14 27.8534 324.271 27.9461 324.397 28.0425C324.895 26.9557 325.71 26.03 326.748 25.398L327.304 25.0601L327.646 24.8667C328.414 24.4656 329.261 24.2361 330.128 24.1909C330.254 24.0861 330.384 23.9846 330.518 23.8902L332.39 22.5747L332.604 22.4312C333.69 21.7353 334.972 21.4028 336.264 21.4888L337.169 21.5503L337.565 21.5894C337.96 21.6421 338.351 21.7341 338.728 21.8638L340.776 22.5679C341 22.4722 341.231 22.3882 341.466 22.3198L342.71 21.9575L343.138 21.8491C343.675 21.7347 344.224 21.6984 344.769 21.732C345.463 21.1564 346.28 20.7408 347.158 20.521L348.365 20.2193L348.463 20.1968C348.948 19.4902 349.585 18.8833 350.344 18.4302L354.002 16.2456L354.206 16.1294C355.238 15.5665 356.414 15.3159 357.589 15.4116L359.396 15.5581L359.798 14.7993L359.97 14.4956C360.712 13.2648 361.867 12.3444 363.219 11.8911C362.461 10.8605 362.032 9.5885 362.049 8.2427C362.082 5.56655 363.872 3.23131 366.448 2.50637L367.222 2.2886L367.459 2.22708C368.012 2.09544 368.582 2.04208 369.15 2.06985L370.878 2.15481C371.471 2.18393 372.056 2.30158 372.615 2.50149L373.517 2.47708C374.088 2.04838 374.731 1.72141 375.418 1.51711L376.311 1.25051L376.741 1.14016Z" fill="#910A35"/>
<path d="M174.094 253.887C174.092 253.881 174.09 253.875 174.089 253.869H174.091C174.081 253.828 174.084 253.836 174.094 253.887Z" fill="#910A35"/>
</svg>
