<svg width="854" height="245" viewBox="0 0 854 245" fill="none" xmlns="http://www.w3.org/2000/svg">
<g clip-path="url(#clip0_1_19)">
<path d="M842.695 114.791H774.677V186.653H745.072V23.9516H853.839V47.7369H774.677V91.2588H842.695V114.791Z" fill="#01508A"/>
<path d="M684.609 71.5219C684.609 63.7622 681.48 57.8581 675.221 53.8095C668.962 49.7609 661.312 47.7367 652.272 47.7367H622.02V94.042H650.707C659.574 94.042 667.397 92.1021 674.178 88.2222C681.132 84.1737 684.609 78.6069 684.609 71.5219ZM719.555 186.653H688C686.609 181.761 685.479 177.206 684.609 172.989C683.914 168.772 683.219 164.217 682.523 159.325C682.002 154.433 681.48 150.553 680.958 147.685C678.872 136.214 675.656 128.37 671.309 124.153C666.963 119.936 659.661 119.526 649.403 119.526H622.02V186.653H591.508V23.9514H652.272C673.483 23.9514 689.304 27.4939 699.735 34.5789C710.341 41.6638 715.643 52.7974 715.643 67.9794C715.643 83.3302 711.992 99.1009 689.814 106.349C690.062 106.245 702.982 111.429 706.286 119.526C709.141 124.153 709.05 132.813 711.992 152.999C714.426 169.699 716.947 180.917 719.555 186.653Z" fill="#01508A"/>
<path d="M524.367 125.671L500.358 56.5929L475.864 125.671H524.367ZM576.264 186.653H547.405L533.34 148.951H466.891L453.31 186.653H424.936L485.807 23.9514H515.151L576.264 186.653Z" fill="#01508A"/>
<path d="M416.344 128.961C416.344 146.841 407.856 164.639 394.594 174.76C381.509 184.882 365.948 189.942 347.911 189.942C335.18 189.942 323.951 187.665 314.226 183.11C304.5 178.387 296.808 172.061 291.149 164.133C285.491 156.036 281.247 147.095 278.418 137.311C275.765 127.527 274.439 116.984 274.439 105.682C274.439 81.3904 280.628 61.2319 293.006 45.2064C305.561 29.0122 323.863 20.9151 347.911 20.9151C368.954 20.9151 385.045 25.3854 396.186 34.3259C407.326 43.2665 413.515 56.0869 414.753 72.7872H383.984C381.862 53.5566 369.838 43.9412 347.911 43.9412C320.326 43.9412 306.533 64.5214 306.533 105.682C306.533 126.262 309.805 141.613 316.347 151.734C322.89 161.855 333.323 166.916 347.646 166.916C358.079 166.916 368.759 163.56 376.988 155.71C385.217 147.86 388.776 138.576 390.014 128.961H416.344Z" fill="#01508A"/>
<path d="M288.92 0C292.224 0 295.431 0.0862735 298.539 0.262934C272.556 1.97384 252.464 11.9877 238.265 30.3024C222.824 50.2938 215.104 75.4413 215.103 105.744C215.103 119.843 216.758 132.996 220.067 145.202C223.596 157.407 228.89 168.561 235.949 178.662C243.008 188.552 252.604 196.443 264.736 202.335C274.494 206.905 285.466 209.63 297.65 210.525C294.794 210.744 291.883 210.858 288.92 210.858C273.038 210.858 259.03 208.017 246.898 202.335C234.766 196.443 225.17 188.552 218.111 178.662C211.052 168.561 205.758 157.407 202.229 145.202C198.92 132.996 197.265 119.843 197.265 105.744C197.265 75.4414 204.986 50.2938 220.427 30.3024C236.089 10.1008 258.92 0.000327759 288.92 0Z" fill="#005886"/>
<path d="M190.287 16.7886C193.591 16.7886 196.798 16.8749 199.906 17.0516C173.923 18.7625 153.831 28.7763 139.632 47.0911C124.191 67.0824 116.471 92.2299 116.471 122.533C116.471 136.632 118.125 149.785 121.434 161.99C124.963 174.196 130.257 185.35 137.316 195.451C144.375 205.341 153.971 213.232 166.103 219.124C175.861 223.694 186.833 226.419 199.017 227.313C196.161 227.532 193.25 227.647 190.287 227.647C174.405 227.647 160.397 224.806 148.265 219.124C136.133 213.232 126.537 205.341 119.478 195.451C112.419 185.35 107.125 174.196 103.596 161.99C100.287 149.785 98.6324 136.632 98.6324 122.533C98.6326 92.23 106.353 67.0824 121.794 47.0911C137.456 26.8894 160.288 16.789 190.287 16.7886Z" fill="#A36A5C"/>
<path d="M91.6547 33.5773C94.9585 33.5773 98.1659 33.6635 101.274 33.8402C75.2906 35.5511 55.1988 45.5649 41 63.8797C25.5588 83.8711 17.8383 109.019 17.8382 139.321C17.8382 153.42 19.4926 166.574 22.8014 178.779C26.3309 190.984 31.6249 202.139 38.6838 212.24C45.7425 222.13 55.3388 230.02 67.4707 235.913C77.2287 240.482 88.2009 243.208 100.385 244.102C97.5287 244.321 94.6179 244.436 91.6547 244.436C75.7728 244.436 61.7646 241.594 49.6325 235.913C37.5007 230.02 27.9043 222.13 20.8457 212.24C13.7868 202.139 8.4927 190.984 4.96325 178.779C1.65442 166.574 0 153.42 0 139.321C0.00013133 109.019 7.72077 83.871 23.1618 63.8797C38.8235 43.6781 61.6552 33.5776 91.6547 33.5773Z" fill="#FE7938"/>
</g>
<defs>
<clipPath id="clip0_1_19">
<rect width="854" height="245" fill="white"/>
</clipPath>
</defs>
</svg>
