<svg width="59" height="61" viewBox="0 0 59 61" fill="none" xmlns="http://www.w3.org/2000/svg">
<path d="M29.771 15.9626C34.9489 15.9626 38.1723 18.6048 38.1723 23.3073C38.1721 31.4437 28.0813 32.5005 23.2202 32.5534C23.4315 35.9878 25.3863 39.317 29.8774 39.317C32.9946 39.317 35.2666 37.89 36.5346 36.9919C36.5413 36.9878 37.7691 36.2562 38.7758 38.4645C39.6003 40.2731 38.5075 41.1515 38.4897 41.1657C37.6443 41.9054 34.1565 44.1247 29.1899 44.1247C20.4721 44.1245 16.8793 38.5237 16.8793 30.5983C16.8794 22.8316 21.3703 15.9628 29.771 15.9626ZM29.4018 20.4538C25.1749 20.4538 23.1668 24.5751 23.0083 28.485C25.8614 28.5379 32.5717 27.6394 32.5717 23.571C32.5716 21.6163 31.3037 20.4539 29.4018 20.4538Z" fill="#003474"/>
<path d="M0 30.0343C1.50556e-05 24.8864 1.26997 20.0336 3.51074 15.7921C4.02674 14.8158 5.2364 14.4425 6.21289 14.9581C7.18955 15.4741 7.56381 16.6846 7.04785 17.6612C5.10538 21.3381 4.00002 25.5502 4 30.0343C4 44.4554 15.4189 56.0685 29.4102 56.0685C39.5942 56.0683 48.4076 49.9245 52.459 41.0079C52.9159 40.0023 54.1018 39.5578 55.1074 40.0147C56.113 40.4717 56.5575 41.6576 56.1006 42.6632C51.4405 52.919 41.258 60.0683 29.4102 60.0685C13.1253 60.0685 0 46.5791 0 30.0343Z" fill="#003474"/>
<path d="M7.02168 10.4501C7.53405 9.87844 8.30091 9.67162 8.99727 9.84558C9.05776 9.85873 9.12143 9.87591 9.1877 9.89733C9.32035 9.94024 9.46494 10.0014 9.61055 10.0897C9.75714 10.1786 9.8977 10.2906 10.0256 10.4257C10.1535 10.5608 10.2583 10.7086 10.34 10.8622C10.4212 11.0148 10.4753 11.1653 10.5109 11.3036C10.5463 11.4409 10.5636 11.5672 10.5705 11.6766C10.5774 11.786 10.5743 11.8839 10.5676 11.9667C10.5608 12.0496 10.5503 12.1232 10.5383 12.1854C10.5262 12.2478 10.5116 12.3031 10.4982 12.3505C10.4848 12.3979 10.4713 12.4406 10.4582 12.4774C10.4451 12.5143 10.4322 12.5479 10.4201 12.577C10.3962 12.6347 10.3721 12.6835 10.3527 12.7216C10.3331 12.76 10.3148 12.7939 10.299 12.8212C10.2831 12.8486 10.2681 12.8728 10.2551 12.8934C10.2293 12.9341 10.2054 12.9687 10.1867 12.995C10.1678 13.0215 10.1503 13.0453 10.135 13.0653C10.1048 13.1048 10.0754 13.1412 10.05 13.1717C9.51486 13.8161 8.66064 14.0373 7.9084 13.7997C7.78466 13.7653 7.64787 13.7161 7.50703 13.6415C7.31581 13.5402 7.12779 13.4001 6.96211 13.2176C6.79654 13.0352 6.67571 12.8342 6.59297 12.6327C6.5116 12.4345 6.47159 12.2486 6.4543 12.0917C6.43713 11.9359 6.44058 11.7995 6.45039 11.6913C6.46025 11.5827 6.47793 11.4891 6.49531 11.4149C6.51287 11.34 6.53304 11.275 6.55098 11.2225C6.569 11.1699 6.58744 11.1241 6.60371 11.0858C6.63565 11.0108 6.66608 10.9492 6.68965 10.9061C6.71382 10.8619 6.7371 10.8253 6.75508 10.7967C6.79009 10.7412 6.82181 10.6966 6.84297 10.6678C6.88464 10.6113 6.92293 10.5649 6.94649 10.537C6.97269 10.5059 6.99854 10.4759 7.02168 10.4501ZM10.0002 13.12C10.0012 13.1189 10.0028 13.1177 10.0041 13.1161C10.0079 13.1115 10.0146 13.1029 10.0236 13.0917C10.0267 13.0878 10.03 13.0826 10.0344 13.077C10.0227 13.0908 10.0123 13.1064 10.0002 13.12ZM6.92695 10.6766C6.92553 10.6786 6.92464 10.6812 6.92305 10.6835L6.95625 10.6376C6.94983 10.646 6.93921 10.6594 6.92695 10.6766Z" fill="#003474"/>
<path d="M29.4102 0C44.605 0.000199078 57.0509 11.7478 58.6465 26.7588C58.7631 27.857 57.9675 28.8422 56.8692 28.959C55.771 29.0757 54.786 28.2798 54.669 27.1816C53.2796 14.1104 42.4661 4.0002 29.4102 4C25.2792 4 21.3822 5.009 17.9366 6.79883C16.9564 7.3078 15.7494 6.9254 15.2403 5.94531C14.7311 4.96513 15.1127 3.75823 16.0928 3.24902C20.092 1.1716 24.6196 0 29.4102 0Z" fill="#003474"/>
<path d="M8.05836 30.0319C8.05859 18.3553 17.5243 8.88959 29.2009 8.88936C40.0583 8.88936 49.0024 17.0715 50.2068 27.6071C50.3322 28.7045 49.5443 29.6964 48.447 29.822C47.3496 29.9474 46.3576 29.1587 46.2322 28.0612C45.256 19.5227 38.0016 12.8894 29.2009 12.8894C19.7335 12.8896 12.0586 20.5645 12.0584 30.0319C12.0584 39.4996 19.7333 47.1753 29.2009 47.1755C31.6092 47.1755 33.8973 46.6804 35.9715 45.7878C36.9859 45.3513 38.1617 45.8194 38.5984 46.8337C39.035 47.8482 38.567 49.0249 37.5525 49.4616C34.9882 50.5651 32.1629 51.1755 29.2009 51.1755C17.5242 51.1753 8.05836 41.7088 8.05836 30.0319Z" fill="#F4921E"/>
<path d="M39.7503 43.5613C40.6146 43.0311 41.7573 43.2317 42.3851 44.0554C42.4759 44.1747 42.5495 44.3017 42.6097 44.4324C42.6201 44.4516 42.6329 44.4699 42.6429 44.49C42.7622 44.73 42.8333 44.9925 42.8499 45.2624C42.8662 45.5274 42.8275 45.7624 42.7718 45.9529C42.7171 46.1398 42.6441 46.2907 42.5794 46.4021C42.5143 46.5142 42.4475 46.6039 42.3929 46.6706C42.3378 46.7381 42.2859 46.7938 42.2425 46.8367C42.1987 46.88 42.1573 46.9163 42.1224 46.946C42.0541 47.0042 41.9915 47.0512 41.9437 47.0847C41.0399 47.7195 39.7925 47.5011 39.1576 46.5974C39.0903 46.5017 39.035 46.4009 38.9867 46.2986C38.9794 46.2853 38.9703 46.2722 38.9632 46.2585C38.9084 46.1528 38.862 46.0392 38.8255 45.9197C38.789 45.8001 38.764 45.6788 38.7503 45.5574C38.7228 45.3124 38.7427 45.0885 38.7845 44.8982C38.8257 44.711 38.8877 44.5558 38.9466 44.4363C39.0055 44.3168 39.068 44.2195 39.1214 44.1453C39.1752 44.0705 39.2277 44.0084 39.2718 43.9597C39.3164 43.9106 39.3586 43.8687 39.3949 43.8347C39.4657 43.7682 39.531 43.7149 39.5814 43.6765L39.7503 43.5613Z" fill="#F4921E"/>
<path fill-rule="evenodd" clip-rule="evenodd" d="M56.8749 31.938C57.9631 32.0218 58.7902 32.9643 58.6498 34.0466C58.5443 34.8604 58.4042 35.6668 58.231 36.4641C57.9907 37.5703 56.8304 38.1778 55.7542 37.8269C54.7269 37.4921 54.158 36.4051 54.3755 35.3468C54.4801 34.8377 54.5691 34.3246 54.642 33.8081C54.7983 32.7002 55.7593 31.852 56.8749 31.938Z" fill="#003474"/>
</svg>
