<svg width="271" height="66" viewBox="0 0 271 66" fill="none" xmlns="http://www.w3.org/2000/svg">
<g clip-path="url(#clip0_1_4)">
<path d="M266.404 57.8458V65.3578H262.396V55.4218L262.084 53.0698H265.348L265.66 54.7738C266.308 53.2618 267.508 52.7098 268.54 52.7098C269.14 52.7098 269.908 52.8538 270.532 53.1658L269.884 56.5018C269.38 56.2378 268.78 56.0938 268.156 56.0938C267.124 56.0938 266.428 56.7418 266.404 57.8458Z" fill="#00224B"/>
<path d="M253.672 62.8138C254.848 62.8138 255.304 61.6378 255.304 59.2858C255.304 56.8378 254.896 55.5898 253.672 55.5898C252.544 55.5898 252.04 56.8618 252.04 58.8538C252.04 60.9178 252.256 62.8138 253.672 62.8138ZM247.96 59.3098C247.96 54.2698 251.224 52.7098 253.84 52.7098C255.76 52.7098 259.456 53.2858 259.456 58.9258C259.456 63.4378 256.816 65.7418 253.504 65.7418C250.072 65.7418 247.96 63.6778 247.96 59.3098Z" fill="#00224B"/>
<path d="M239.824 52.7098C240.352 52.7098 240.688 52.7578 240.976 52.8298V48.6777H244.96V62.7418L245.224 65.3577H241.864L241.648 64.2058H241.504C240.88 65.2138 239.896 65.7178 238.528 65.7178C234.496 65.7178 233.8 62.5738 233.8 59.8138C233.8 55.6617 236.032 52.7098 239.824 52.7098ZM240.976 61.5418V55.7338C240.712 55.6378 240.4 55.5658 240.04 55.5658C238.168 55.5658 237.784 57.7018 237.784 59.5017C237.784 61.3498 238.144 62.8618 239.464 62.8618C240.4 62.8618 240.976 62.1658 240.976 61.5418Z" fill="#00224B"/>
<path d="M230.775 53.6698V62.7658L231.039 65.3578H227.631L227.463 64.2298L227.319 64.2058C226.599 65.3338 225.471 65.7178 224.223 65.7178C220.551 65.7178 219.615 62.7658 219.615 59.7658C219.615 55.5418 221.751 52.7098 226.119 52.7098C226.983 52.7098 228.831 52.9258 230.775 53.6698ZM226.791 61.4938V55.7098C226.527 55.6138 226.119 55.5418 225.687 55.5418C224.127 55.5418 223.599 57.4138 223.599 59.4778C223.599 61.3258 223.935 62.8618 225.327 62.8618C226.263 62.8618 226.791 62.1898 226.791 61.4938Z" fill="#00224B"/>
<path d="M213.996 62.5498C214.836 62.5498 215.532 62.2858 216.516 61.5898L217.932 64.3018C216.828 65.1658 215.316 65.7178 213.42 65.7178C209.82 65.7178 207.564 63.5338 207.564 59.3578C207.564 54.6058 210.612 52.7098 213.492 52.7098C215.22 52.7098 216.972 53.2858 218.196 55.2058L215.748 57.2938C215.172 56.5018 214.548 55.8778 213.66 55.8778C212.34 55.8778 211.596 57.0538 211.596 59.1898C211.596 61.3258 212.388 62.5498 213.996 62.5498Z" fill="#00224B"/>
<path d="M195.551 64.3978L196.583 61.5658C197.471 62.1418 199.079 62.8138 200.159 62.8138C200.879 62.8138 201.311 62.5738 201.311 61.9018C201.311 61.1818 200.615 60.9418 199.751 60.6778C197.855 60.0778 195.959 59.3578 195.959 56.7658C195.959 54.1258 198.071 52.7098 200.759 52.7098C202.679 52.7098 204.407 53.4298 205.583 54.5098L203.759 56.8138C202.703 55.9978 201.719 55.5658 200.975 55.5658C200.303 55.5658 199.871 55.8538 199.871 56.4298C199.871 57.1258 200.543 57.4378 201.527 57.7498C203.303 58.3258 205.295 59.0938 205.295 61.6378C205.295 64.3258 203.351 65.7418 200.399 65.7418C198.167 65.7418 196.295 64.9258 195.551 64.3978Z" fill="#00224B"/>
<path d="M188.856 53.0697H192.864V63.0297L193.128 65.3577H189.744L189.576 64.2057H189.48C188.736 65.1897 187.584 65.6697 186.312 65.6697C183.576 65.6697 182.232 64.2297 182.232 61.3257V53.0697H186.264V60.7977C186.264 61.8777 186.384 62.6217 187.392 62.6217C188.232 62.6217 188.856 61.9497 188.856 60.9897V53.0697Z" fill="#00224B"/>
<path d="M168.189 64.7337V48.6777H172.221V53.2858C172.749 52.9738 173.589 52.7098 174.525 52.7098C177.501 52.7098 179.349 54.6778 179.349 58.6858C179.349 63.3658 177.141 65.7418 173.229 65.7418C171.405 65.7418 169.245 65.2857 168.189 64.7337ZM172.221 56.6938V62.7178C172.581 62.8618 173.013 62.9578 173.421 62.9578C174.981 62.9578 175.341 61.4938 175.341 59.2138C175.341 57.2698 175.029 55.5418 173.445 55.5418C172.773 55.5418 172.221 55.9978 172.221 56.6938Z" fill="#00224B"/>
<path d="M67.9252 53.2995H61.7963V40.8776H67.9252V53.2995ZM125.909 12.4655C130.349 12.4655 138.989 13.8463 138.989 27.6461C138.989 39.1659 132.869 44.4459 124.949 44.446C116.909 44.446 111.928 39.2861 111.928 28.4264C111.928 15.9464 119.729 12.4655 125.909 12.4655ZM182.733 12.4655C188.613 12.4655 192.273 15.4663 192.273 20.8063C192.273 30.0458 180.813 31.2463 175.293 31.3063C175.534 35.2061 177.753 38.9859 182.853 38.986C186.393 38.986 188.974 37.3663 190.414 36.3463L192.633 41.0856C191.673 41.9256 187.713 44.446 182.073 44.446C172.173 44.4457 168.093 38.0855 168.093 29.0856C168.093 20.2658 173.193 12.4657 182.733 12.4655ZM206.008 12.4655C210.508 12.4655 214.408 14.2663 216.868 16.7262L213.448 20.9264C211.168 18.9465 208.648 17.6863 206.128 17.6862C203.968 17.6862 201.928 18.7659 201.928 21.1657C201.928 23.9256 204.448 24.7056 207.268 25.5456C211.648 26.9256 216.508 28.6663 216.508 34.8463C216.508 41.086 211.888 44.4458 205.168 44.446C200.009 44.446 195.748 42.5864 194.188 41.3864L196.289 36.2858C198.268 37.5457 201.808 39.1655 204.868 39.1657C207.388 39.1657 209.428 38.0258 209.428 35.3258C209.428 32.6259 207.148 31.7859 204.328 30.946C199.948 29.686 195.028 28.2453 195.028 22.0055C195.028 15.7658 200.188 12.4655 206.008 12.4655ZM230.544 12.4655C235.044 12.4655 238.945 14.2662 241.405 16.7262L237.985 20.9264C235.705 18.9464 233.185 17.6862 230.665 17.6862C228.505 17.6863 226.464 18.766 226.464 21.1657C226.464 23.9257 228.985 24.7056 231.805 25.5456C236.185 26.9255 241.044 28.6665 241.044 34.8463C241.044 41.0861 236.424 44.446 229.705 44.446C224.545 44.4459 220.285 42.5864 218.725 41.3864L220.825 36.2858C222.805 37.5458 226.345 39.1657 229.405 39.1657C231.925 39.1657 233.964 38.0258 233.964 35.3258C233.964 32.6259 231.685 31.7859 228.865 30.946C224.485 29.686 219.565 28.2455 219.565 22.0055C219.565 15.7659 224.725 12.4656 230.544 12.4655ZM257.909 12.4655C262.349 12.4655 270.989 13.8463 270.989 27.6461C270.989 39.1659 264.869 44.4459 256.949 44.446C248.909 44.446 243.928 39.2861 243.928 28.4264C243.928 15.9464 251.729 12.4655 257.909 12.4655ZM156.42 12.4655C160.32 12.4655 164.64 14.0258 167.46 18.1657L162.96 21.8864C161.4 19.9664 159.24 18.1657 156.54 18.1657C152.52 18.1657 149.701 21.4663 149.701 28.3063C149.701 34.5461 151.981 38.6862 157.321 38.6862C159.661 38.6861 161.76 37.9059 164.22 36.1061L166.92 40.9059C164.58 42.8259 160.92 44.3864 156.48 44.3864C147.66 44.3862 142.56 38.8058 142.56 28.6061C142.56 16.5461 150.06 12.4655 156.42 12.4655ZM29.771 15.9626C34.9489 15.9626 38.1723 18.6048 38.1723 23.3073C38.1721 31.4437 28.0813 32.5005 23.2202 32.5534C23.4315 35.9878 25.3863 39.317 29.8774 39.317C32.9946 39.317 35.2666 37.89 36.5346 36.9918C36.5413 36.9878 37.7691 36.2562 38.7758 38.4645C39.6003 40.2731 38.5075 41.1515 38.4897 41.1657C37.6443 41.9054 34.1565 44.1247 29.1899 44.1247C20.4721 44.1245 16.8793 38.5237 16.8793 30.5983C16.8794 22.8316 21.3703 15.9628 29.771 15.9626ZM102.059 12.4655C103.591 12.4655 105.036 12.7708 106.247 13.3424C106.46 13.4259 106.661 13.5344 106.85 13.6608C106.853 13.6625 106.856 13.664 106.859 13.6657H106.858C108.337 14.6595 109.062 16.8558 109.062 18.528V22.4547H103.171C103.171 18.9927 102.128 18.5393 101.219 18.529C98.0474 18.5918 95.998 21.1489 95.8793 24.5856V43.5456H88.7387V18.2262L88.1987 13.3659H94.0786L94.7993 17.7458C96.1193 14.3259 99.0591 12.4655 102.059 12.4655ZM125.548 17.7458C121.169 17.7459 119.189 21.8259 119.189 27.5856C119.189 33.1655 120.088 39.1654 125.428 39.1657C129.808 39.1657 131.668 34.846 131.668 28.6061C131.668 21.8861 130.108 17.7458 125.548 17.7458ZM257.548 17.7458C253.169 17.7459 251.189 21.8259 251.189 27.5856C251.189 33.1655 252.088 39.1654 257.428 39.1657C261.808 39.1657 263.668 34.846 263.668 28.6061C263.668 21.8861 262.108 17.7458 257.548 17.7458ZM73.1098 12.7731C76.7106 12.7731 87.3254 12.8424 87.3256 25.5036C87.3256 35.6333 81.2919 38.4067 77.4809 38.527H46.8647C46.8647 38.527 45.2759 38.1048 45.2758 36.0876C45.2758 33.6479 46.7895 33.6481 46.7895 33.6481H73.1098C79.2946 33.6479 81.1108 29.2833 81.1108 25.5036C81.1106 21.724 78.1606 17.9521 73.1098 17.9518C71.3802 17.9518 69.5088 18.4421 67.9252 19.11V31.6129H61.7963V14.5543H61.8198C62.1195 14.2545 69.5821 12.7731 73.1098 12.7731ZM29.4018 20.4538C25.1749 20.4538 23.1668 24.5751 23.0083 28.485C25.8614 28.5379 32.5717 27.6394 32.5717 23.571C32.5716 21.6163 31.3037 20.4539 29.4018 20.4538ZM182.313 17.5661C177.513 17.5662 175.233 22.2463 175.053 26.6862C178.293 26.7462 185.913 25.726 185.914 21.1061C185.914 18.8861 184.473 17.5661 182.313 17.5661Z" fill="#003474"/>
<path d="M0 30.0343C1.50556e-05 24.8863 1.26997 20.0336 3.51074 15.7921C4.02674 14.8158 5.2364 14.4425 6.21289 14.9581C7.18955 15.4741 7.56381 16.6846 7.04785 17.6612C5.10538 21.3381 4.00002 25.5502 4 30.0343C4 44.4554 15.4189 56.0685 29.4102 56.0685C39.5942 56.0683 48.4076 49.9245 52.459 41.0079C52.9159 40.0023 54.1018 39.5578 55.1074 40.0147C56.113 40.4717 56.5575 41.6576 56.1006 42.6632C51.4405 52.919 41.258 60.0683 29.4102 60.0685C13.1253 60.0685 0 46.5791 0 30.0343Z" fill="#003474"/>
<path d="M7.02171 10.4501C7.53408 9.87843 8.30094 9.6716 8.9973 9.84556C9.05779 9.85872 9.12146 9.8759 9.18773 9.89732C9.32038 9.94022 9.46497 10.0014 9.61058 10.0897C9.75717 10.1786 9.89773 10.2906 10.0256 10.4256C10.1535 10.5608 10.2583 10.7086 10.34 10.8622C10.4212 11.0148 10.4753 11.1653 10.5109 11.3036C10.5463 11.4409 10.5636 11.5672 10.5705 11.6766C10.5774 11.786 10.5743 11.8839 10.5676 11.9667C10.5608 12.0496 10.5503 12.1232 10.5383 12.1854C10.5262 12.2478 10.5116 12.303 10.4982 12.3505C10.4848 12.3979 10.4713 12.4406 10.4582 12.4774C10.4451 12.5143 10.4322 12.5479 10.4201 12.577C10.3962 12.6346 10.3721 12.6835 10.3527 12.7215C10.3331 12.76 10.3148 12.7939 10.299 12.8212C10.2831 12.8486 10.2681 12.8728 10.2551 12.8934C10.2293 12.9341 10.2054 12.9687 10.1867 12.995C10.1678 13.0215 10.1503 13.0453 10.135 13.0653C10.1048 13.1048 10.0754 13.1412 10.05 13.1717C9.51489 13.816 8.66067 14.0373 7.90843 13.7997C7.78469 13.7653 7.6479 13.7161 7.50706 13.6415C7.31584 13.5402 7.12782 13.4001 6.96214 13.2176C6.79657 13.0352 6.67574 12.8342 6.593 12.6327C6.51163 12.4345 6.47162 12.2486 6.45433 12.0917C6.43716 11.9359 6.44061 11.7995 6.45042 11.6913C6.46028 11.5827 6.47796 11.4891 6.49534 11.4149C6.5129 11.34 6.53307 11.275 6.55101 11.2225C6.56903 11.1699 6.58747 11.124 6.60374 11.0858C6.63568 11.0108 6.66611 10.9492 6.68968 10.9061C6.71385 10.8619 6.73713 10.8253 6.75511 10.7967C6.79012 10.7412 6.82184 10.6966 6.843 10.6678C6.88467 10.6113 6.92296 10.5649 6.94652 10.537C6.97272 10.5059 6.99857 10.4759 7.02171 10.4501ZM10.0002 13.12C10.0002 13.12 10.0028 13.1177 10.0041 13.1161C10.0079 13.1115 10.0146 13.1029 10.0236 13.0917C10.0267 13.0878 10.03 13.0826 10.0344 13.077C10.0227 13.0908 10.0123 13.1064 10.0002 13.12ZM6.92698 10.6766C6.92556 10.6786 6.92467 10.6812 6.92308 10.6835L6.95628 10.6376C6.94986 10.646 6.93924 10.6594 6.92698 10.6766Z" fill="#003474"/>
<path d="M29.4102 0C44.605 0.000199078 57.0509 11.7478 58.6465 26.7588C58.7631 27.857 57.9675 28.8422 56.8692 28.959C55.771 29.0757 54.786 28.2798 54.669 27.1816C53.2796 14.1104 42.4661 4.0002 29.4102 4C25.2792 4 21.3822 5.009 17.9366 6.79883C16.9564 7.3078 15.7494 6.9254 15.2403 5.94531C14.7311 4.96513 15.1127 3.75823 16.0928 3.24902C20.092 1.1716 24.6196 0 29.4102 0Z" fill="#003474"/>
<path d="M8.05835 30.0319C8.05858 18.3553 17.5243 8.88959 29.2009 8.88936C40.0583 8.88936 49.0024 17.0715 50.2068 27.6071C50.3322 28.7045 49.5443 29.6964 48.447 29.822C47.3496 29.9474 46.3576 29.1587 46.2322 28.0612C45.256 19.5227 38.0016 12.8894 29.2009 12.8894C19.7335 12.8896 12.0586 20.5645 12.0584 30.0319C12.0584 39.4996 19.7333 47.1753 29.2009 47.1755C31.6092 47.1755 33.8973 46.6804 35.9715 45.7878C36.9859 45.3513 38.1617 45.8194 38.5984 46.8337C39.035 47.8482 38.567 49.0249 37.5525 49.4616C34.9882 50.5651 32.1629 51.1755 29.2009 51.1755C17.5242 51.1753 8.05835 41.7088 8.05835 30.0319Z" fill="#F4921E"/>
<path d="M39.7503 43.5613C40.6146 43.0311 41.7573 43.2317 42.3851 44.0554C42.4759 44.1746 42.5495 44.3017 42.6097 44.4324C42.6201 44.4516 42.6329 44.4699 42.6429 44.49C42.7622 44.73 42.8333 44.9925 42.8499 45.2624C42.8662 45.5274 42.8275 45.7624 42.7718 45.9529C42.7171 46.1398 42.6441 46.2907 42.5794 46.4021C42.5143 46.5142 42.4475 46.6039 42.3929 46.6706C42.3378 46.7381 42.2859 46.7938 42.2425 46.8367C42.1987 46.88 42.1573 46.9163 42.1224 46.946C42.0541 47.0042 41.9915 47.0511 41.9437 47.0847C41.0399 47.7195 39.7925 47.5011 39.1576 46.5974C39.0903 46.5017 39.035 46.4009 38.9867 46.2986C38.9794 46.2853 38.9703 46.2722 38.9632 46.2585C38.9084 46.1528 38.862 46.0392 38.8255 45.9197C38.789 45.8 38.764 45.6788 38.7503 45.5574C38.7228 45.3124 38.7427 45.0885 38.7845 44.8982C38.8257 44.711 38.8877 44.5558 38.9466 44.4363C39.0055 44.3168 39.068 44.2195 39.1214 44.1452C39.1752 44.0704 39.2277 44.0084 39.2718 43.9597C39.3164 43.9106 39.3586 43.8687 39.3949 43.8347C39.4657 43.7682 39.531 43.7149 39.5814 43.6765L39.7503 43.5613Z" fill="#F4921E"/>
</g>
<defs>
<clipPath id="clip0_1_4">
<rect width="271" height="66" fill="white"/>
</clipPath>
</defs>
</svg>
