<svg width="348" height="231" viewBox="0 0 348 231" fill="none" xmlns="http://www.w3.org/2000/svg">
<g clip-path="url(#clip0_1_2)">
<path d="M171.885 0.345249C172.892 0.0595213 173.965 -0.159795 174.995 0.152517C199.328 6.54176 222.985 15.2966 246.115 25.1645C248.334 26.1581 250.63 26.9819 252.773 28.1414C251 40.7639 249.092 53.3697 247.493 66.0119C249.579 65.0319 251.511 63.7627 253.531 62.6531C264.006 56.6889 274.721 51.1402 285.641 46.0335C286.595 45.6348 287.69 44.824 288.716 45.5085C306.975 54.6653 324.73 64.7961 342.307 75.1988C344.185 76.3384 346.102 77.4082 347.933 78.6242C342.247 82.7708 336.475 86.8044 330.843 91.0339C312.639 104.617 295.032 119.01 278.012 134.061C277.009 135.108 275.541 134.224 274.356 134.057C244.327 127.127 214.059 121.259 183.629 116.405C180.582 115.996 177.562 115.352 174.495 115.119C175.605 116.199 176.89 117.066 178.148 117.957C198.95 133.174 219.431 148.837 239.402 165.137C240.011 165.642 240.608 166.163 241.21 166.682C238.866 169.17 236.229 171.36 233.828 173.792C214.324 192.428 194.797 211.048 175.303 229.7C174.866 230.086 174.422 230.465 173.978 230.847C172.349 229.588 170.978 228.043 169.501 226.621C135.67 193.93 101.52 161.539 66.0497 130.629C66.6426 129.19 67.3381 127.798 68.0634 126.423C77.3598 108.135 86.7757 89.8944 97.0691 72.1453C98.1057 70.2948 99.3477 68.5572 100.225 66.6199C98.4999 67.3775 96.9069 68.3942 95.2743 69.3311C76.2902 80.3055 57.6671 91.8979 39.3488 103.955C38.3587 104.577 37.4479 105.401 36.3018 105.723C35.2091 105.089 34.3049 104.181 33.3146 103.407C23.5114 95.5326 13.3569 88.1069 3.00716 80.9768C1.99042 80.2823 0.983625 79.5746 0 78.8303C2.08651 77.2888 4.42482 76.1423 6.62392 74.77C35.9444 57.433 65.967 41.2224 97.0294 27.2378C98.331 26.6333 99.6591 25.9188 101.136 25.9286C122.905 25.952 144.675 26.7957 166.384 28.4005C168.567 28.5236 170.743 28.8558 172.932 28.7497C172.309 28.3674 171.674 28.0086 171.004 27.7195C158.141 22.4466 145.085 17.649 131.904 13.2433C133.904 12.3097 136.044 11.7414 138.117 11.0037C149.295 7.20276 160.489 3.43522 171.885 0.345249ZM174.995 29.3809C174.383 29.0851 173.694 29.1085 173.094 29.4172C154.451 37.6807 136.18 46.7809 118.236 56.4729C112.413 59.6857 106.531 62.8056 100.818 66.2113C102.239 67.1515 103.716 67.9987 105.18 68.8694C117.596 76.3252 129.751 84.2093 141.744 92.3265C152.64 99.6559 163.314 107.311 174.025 114.907C175.784 113.78 177.426 112.491 179.132 111.288C199.931 96.3666 221.077 81.8936 243.049 68.7495C244.456 67.919 245.913 67.1582 247.208 66.1447C224.104 52.0904 199.914 39.8469 174.995 29.3809ZM166.55 42.5481C174.78 41.7873 183.163 42.3022 191.171 44.4088C196.308 45.751 201.295 47.7911 205.73 50.7383C208.863 52.8414 211.721 55.4597 213.655 58.7323C215.656 62.0914 216.55 66.2312 215.553 70.0687C214.463 74.604 211.337 78.3451 207.75 81.1727C202.259 85.4289 195.652 88.0105 188.922 89.5156C177.857 91.9577 166.182 91.7152 155.243 88.7381C148.599 86.8909 142.121 83.8704 137.077 79.0628C133.709 75.697 131.119 71.1453 131.334 66.2447C131.457 61.0416 134.56 56.4163 138.395 53.1305C146.254 46.5352 156.522 43.6114 166.55 42.5481Z" fill="#003772"/>
</g>
<defs>
<clipPath id="clip0_1_2">
<rect width="348" height="231" fill="white"/>
</clipPath>
</defs>
</svg>
